<?xml version="1.0" encoding="utf-8"?>
<!-- Generator: Adobe Illustrator 27.5.0, SVG Export Plug-In . SVG Version: 6.00 Build 0)  -->
<svg version="1.1" id="Layer_1" xmlns="http://www.w3.org/2000/svg" xmlns:xlink="http://www.w3.org/1999/xlink" x="0px" y="0px"
	 viewBox="0 0 841.9 595.3" style="enable-background:new 0 0 841.9 595.3;" xml:space="preserve">
<style type="text/css">
	.st0{fill:#97A0AD;}
	.st1{fill:#7D8DA2;}
	.st2{fill:url(#SVGID_1_);}
	.st3{fill:url(#SVGID_00000119113848755110275220000018344877933012418714_);}
	.st4{fill:url(#SVGID_00000021809461878279848710000015316488889162097299_);}
</style>
<g>
	<g>
		<path class="st0" d="M330.1,280.3c1.1,1.5,2,2.7,2.8,3.6c2.3,2.4,5.5,3.6,9.9,3.6h1.6l2.8,1.1v9.3l-2.8,0.9h-3.9
			c-4.9,0-9.1-1.1-12.6-3.2c-1.4-0.8-2.7-1.9-4-3.2c-4.2,4.2-10.2,6.3-18,6.3h-35.3c-10.6,0-18.4-2.6-23.5-7.9
			c-4.8-4.9-7.1-12-7.1-21.4c0-8.1,0-12.8,0-14.3h12.9c0,1.5,0,6.3,0,14.2c0,4,0.6,7.3,1.7,9.8c1.2,2.8,3.1,4.9,5.7,6.2
			c2.6,1.3,6,2,10.4,2h33.5c4.7,0,8.1-1.2,10.3-3.5c2.2-2.3,3.3-6.2,3.3-11.6V245h13.6v27.3C331,275.2,330.7,277.8,330.1,280.3z
			 M270.2,249.3c-1.5-1.5-2.2-3.2-2.2-5.3c0-2.1,0.7-3.8,2.2-5.3c1.5-1.5,3.3-2.2,5.3-2.2c2.1,0,3.9,0.7,5.4,2.2
			c1.5,1.5,2.2,3.2,2.2,5.3c0,2.1-0.8,3.8-2.3,5.3s-3.3,2.2-5.4,2.2C273.5,251.5,271.7,250.8,270.2,249.3z M288.7,249.3
			c-1.5-1.5-2.2-3.2-2.2-5.3c0-2.1,0.7-3.8,2.2-5.3c1.5-1.5,3.3-2.2,5.3-2.2c2.1,0,3.9,0.7,5.4,2.2c1.5,1.5,2.2,3.2,2.2,5.3
			c0,2.1-0.8,3.8-2.3,5.3s-3.3,2.2-5.4,2.2C291.9,251.5,290.2,250.8,288.7,249.3z"/>
		<path class="st0" d="M436.6,277.5c0.7,3,1.7,5.1,2.7,6.3c2.3,2.4,5.5,3.6,9.9,3.6h1.6l2.8,1.1v9.3l-2.8,0.9h-3.9
			c-4.9,0-9.1-1.1-12.6-3.2c-1.4-0.8-2.7-1.9-4-3.2c-3.9,4.2-9.2,6.3-16.1,6.3c-4.9,0-8.9-1.1-12-3.2c-2.6-1.7-4.6-3.9-6.1-6.5
			c-1.5,2.8-3.8,5.1-6.8,7c-3,1.8-6.6,2.7-10.7,2.7h-34.7l-2.8-0.9v-9.5l2.8-0.9h12.5l-0.1-5.5v-7.7V245h13.1v29.2v13.2h9.3
			c4,0,7.1-1.1,9.3-3.5c0.9-0.9,1.7-1.9,2.2-3.2c0.8-1.9,1.2-4,1.2-6.6V245h13.1v29.2c0,4.3,1,7.6,3.1,9.8c2.1,2.2,4.7,3.4,7.8,3.4
			c1.5,0,3.3-1.1,5.4-3.4c2.1-2.2,3.1-5.5,3.1-9.8V245h12.7v29.3C436.6,275.4,436.6,276.5,436.6,277.5z"/>
		<path class="st0" d="M460.9,298.7h-10.7l-2.8-0.9v-9.5l2.8-0.9h9.1c4.7,0,8.1-1.2,10.3-3.5c2.2-2.3,3.3-6.2,3.3-11.6V245h13.6
			v27.3c-0.4,8.7-2.7,15.3-6.9,19.7C475.3,296.5,469.1,298.7,460.9,298.7z M452.1,319.4c-1.5-1.5-2.2-3.2-2.2-5.3
			c0-2.1,0.7-3.9,2.2-5.3c1.5-1.5,3.3-2.2,5.3-2.2c2.1,0,3.9,0.7,5.4,2.2c1.5,1.5,2.2,3.2,2.2,5.3s-0.8,3.8-2.3,5.3
			s-3.3,2.2-5.4,2.2S453.6,320.8,452.1,319.4z M470.5,319.4c-1.5-1.5-2.2-3.2-2.2-5.3c0-2.1,0.7-3.9,2.2-5.3
			c1.5-1.5,3.3-2.2,5.3-2.2c2.1,0,3.9,0.7,5.4,2.2c1.5,1.5,2.2,3.2,2.2,5.3s-0.8,3.8-2.3,5.3c-1.5,1.4-3.3,2.2-5.4,2.2
			C473.8,321.6,472,320.8,470.5,319.4z"/>
		<path class="st0" d="M549.1,298.7c-1.3,7-4,12.5-8.1,16.6c-6,5.9-15.2,8.9-27.6,8.9h-14.4v-11.9h14.5c6.9,0,12.1-1.2,15.7-3.7
			s5.8-5.8,6.6-9.9h-8.2c-9.7,0-17-2.3-21.9-7c-4.9-4.6-7.3-11.6-7.3-20.9c0-5.3,1.1-10,3.3-14.2c2.2-4.2,5.2-7.4,9.2-9.8
			c3.9-2.4,8.4-3.5,13.3-3.5c5,0,9.5,1.2,13.4,3.5c3.9,2.4,6.9,5.7,9.1,10.2c2.2,4.4,3.3,9.6,3.3,15.5v14.8h11.1l2.8,0.9v9.5
			l-2.8,0.9H549.1z M536.9,287.4v-14.8c0-5.8-1.1-10.3-3.3-13.3c-2.2-3-5.3-4.6-9.4-4.6c-2.4,0-4.6,0.7-6.5,2s-3.4,3.2-4.5,5.7
			c-1.1,2.4-1.6,5.3-1.6,8.5c0,5.6,1.3,9.8,4,12.4c2.6,2.7,6.7,4,12.2,4H536.9z"/>
		<path class="st0" d="M557.6,297.8v-9.5l2.8-0.9h32.1c4.7,0,8.2-1.1,10.4-3.3c2.2-2.2,3.3-5.4,3.3-9.5c0-4.1-1.1-7.2-3.3-9.4
			c-2.2-2.2-5.6-3.3-10.4-3.3h-23.3V253l27.9-35.9l10.4,6.8L586,250.5h6.5c8.7,0,15.3,2.1,19.9,6.4c4.6,4.2,6.8,10.2,6.8,17.7
			c0,7.6-2.3,13.6-6.8,17.8s-11.2,6.3-19.9,6.3h-32.1L557.6,297.8z"/>
		<path class="st0" d="M668.7,246.9c3.9,2.4,6.9,5.7,9.1,10.2c2.2,4.4,3.3,9.6,3.3,15.5v15.6c0,12.1-3,21.2-9,27.1
			c-6,5.9-15.2,8.9-27.5,8.9h-14.4v-11.9h14.5c6.9,0,12.1-1.2,15.7-3.7s5.8-5.8,6.6-9.9h-8.2c-9.7,0-17-2.3-21.9-7
			c-4.9-4.6-7.3-11.6-7.3-20.9c0-5.3,1.1-10,3.3-14.2c2.2-4.2,5.2-7.4,9.2-9.8c3.9-2.4,8.4-3.5,13.3-3.5
			C660.4,243.4,664.9,244.6,668.7,246.9z M668,287.4v-14.8c0-5.8-1.1-10.3-3.3-13.3c-2.2-3-5.3-4.6-9.4-4.6c-2.4,0-4.6,0.7-6.5,2
			s-3.4,3.2-4.5,5.7c-1.1,2.4-1.6,5.3-1.6,8.5c0,5.6,1.3,9.8,4,12.4c2.6,2.7,6.7,4,12.2,4H668z"/>
		<path class="st0" d="M682.4,313.2h9c4.9,0,8.6-1.3,11-3.8c2.4-2.6,3.6-6.6,3.6-12.2V245H719v52.5c0,8.9-2.3,15.6-6.8,20.1
			c-4.5,4.5-11.2,6.7-20.1,6.7h-9.7V313.2z"/>
		<path class="st0" d="M782.2,298.7c-1.3,7-4,12.5-8.1,16.6c-6,5.9-15.2,8.9-27.6,8.9h-14.4v-11.9h14.5c6.9,0,12.1-1.2,15.7-3.7
			s5.8-5.8,6.6-9.9h-8.2c-9.7,0-17-2.3-21.9-7c-4.9-4.6-7.3-11.6-7.3-20.9c0-5.3,1.1-10,3.3-14.2c2.2-4.2,5.2-7.4,9.2-9.8
			c3.9-2.4,8.4-3.5,13.3-3.5c5,0,9.5,1.2,13.4,3.5c3.9,2.4,6.9,5.7,9.1,10.2c2.2,4.4,3.3,9.6,3.3,15.5v14.8h11.1l2.8,0.9v9.5
			l-2.8,0.9H782.2z M770,287.4v-14.8c0-5.8-1.1-10.3-3.3-13.3c-2.2-3-5.3-4.6-9.4-4.6c-2.4,0-4.6,0.7-6.5,2s-3.4,3.2-4.5,5.7
			c-1.1,2.4-1.6,5.3-1.6,8.5c0,5.6,1.3,9.8,4,12.4c2.6,2.7,6.7,4,12.2,4H770z"/>
		<path class="st0" d="M804.3,298.7h-10.7l-2.8-0.9v-9.5l2.8-0.9h9.1c4.7,0,8.1-1.2,10.3-3.5c2.2-2.3,3.3-6.2,3.3-11.6V245h13.6
			v27.3c-0.4,8.7-2.7,15.3-6.9,19.7C818.8,296.5,812.5,298.7,804.3,298.7z M795.6,319.4c-1.5-1.5-2.2-3.2-2.2-5.3
			c0-2.1,0.7-3.9,2.2-5.3c1.5-1.5,3.3-2.2,5.3-2.2c2.1,0,3.9,0.7,5.4,2.2c1.5,1.5,2.2,3.2,2.2,5.3s-0.8,3.8-2.3,5.3
			c-1.5,1.4-3.3,2.2-5.4,2.2C798.8,321.6,797,320.8,795.6,319.4z M814,319.4c-1.5-1.5-2.2-3.2-2.2-5.3c0-2.1,0.7-3.9,2.2-5.3
			c1.5-1.5,3.3-2.2,5.3-2.2c2.1,0,3.9,0.7,5.4,2.2c1.5,1.5,2.2,3.2,2.2,5.3s-0.8,3.8-2.3,5.3c-1.5,1.4-3.3,2.2-5.4,2.2
			C817.2,321.6,815.5,320.8,814,319.4z"/>
	</g>
</g>
<g>
	<g>
		<path class="st0" d="M242.9,382.3c-2.7,0-5.1-0.6-7-1.8s-3.5-3-4.5-5.2c-1-2.2-1.5-4.8-1.5-7.8v-7.8h7.5v7.8
			c0,1.7,0.2,3.2,0.7,4.3c0.5,1.2,1.1,2,2,2.6c0.8,0.6,1.8,0.8,2.9,0.8c1.1,0,2-0.3,2.9-0.8c0.8-0.6,1.5-1.4,2-2.6
			c0.5-1.2,0.7-2.9,0.7-5.3v-29.6h7.4V370c-0.2,2.6-0.9,4.8-2,6.6c-1.1,1.8-2.6,3.3-4.4,4.2S245.4,382.3,242.9,382.3z"/>
		<path class="st0" d="M264.7,370c-1.9-2-2.9-5-2.9-8.9l-0.1-14.5v-9.9h7.7v9.9l-0.1,14.5c0,2,0.3,3.3,1,4.1s1.9,1.1,3.5,1.1h1.1
			l1.8,0.7v5.4l-1.8,0.7h-1.8C269.5,373.1,266.7,372.1,264.7,370z"/>
		<path class="st0" d="M287.2,370c-1.9,2-4.8,3.1-8.4,3.1h-3.9l-1.6-0.7V367l1.6-0.7h0.9c3.2,0,5.1-0.4,5.8-1.1
			c0.7-0.8,1.1-2.1,1.1-4.1v-12.3h7.7v12.3C290.2,365.1,289.1,368,287.2,370z M283.7,346.3c-0.8-0.7-1.1-1.6-1.1-2.7
			c0-1,0.4-1.9,1.1-2.7c0.7-0.7,1.6-1.1,2.7-1.1c1.1,0,2,0.4,2.7,1.1c0.7,0.7,1.1,1.6,1.1,2.7s-0.4,1.9-1.1,2.7
			c-0.8,0.7-1.7,1.1-2.7,1.1C285.3,347.4,284.4,347,283.7,346.3z"/>
		<path class="st0" d="M317.9,373.1c-0.6,2.7-1.8,4.9-3.5,6.5c-2.7,2.6-6.7,4-12.1,4h-7v-7h7c2.6,0,4.6-0.4,5.8-1.3
			c1.3-0.9,2-1.6,2.1-2.2h-2.1c-4.3,0-7.5-1.1-9.8-3.2c-2.2-2.1-3.3-5.2-3.3-9.3c0-2.3,0.5-4.5,1.5-6.3c1-1.9,2.4-3.4,4.2-4.4
			c1.8-1.1,3.8-1.6,6-1.6c2.3,0,4.3,0.5,6.1,1.6c1.8,1.1,3.2,2.6,4.1,4.6c1,2,1.5,4.3,1.5,6.9v5h4.2l1.6,0.7v5.4l-1.6,0.7H317.9z
			 M311,366.4l0-4.2c0-2.7-0.4-4.6-1.1-5.6s-1.8-1.5-3.1-1.5c-0.8,0-1.5,0.2-2.1,0.7c-0.6,0.4-1.1,1.1-1.5,1.9
			c-0.4,0.8-0.6,1.9-0.6,3c0,2,0.4,3.5,1.3,4.4c0.9,0.9,2.3,1.4,4.3,1.4H311z"/>
		<path class="st0" d="M342.2,367.2v5.3l-1.6,0.7h-2c-1.7,0-3.4-0.5-5-1.5c-1.7-1-3.1-2.9-4.2-5.6h3.7c-0.9,2.6-2.1,4.5-3.5,5.5
			c-1.4,1-3.5,1.6-6.2,1.6h-0.9l-1.6-0.7V367l1.6-0.7h0.9c1.5,0,2.6-0.4,3.3-1.1c0.7-0.8,1-2,0.9-3.8v-10.3h7.8v10.3
			c-0.1,1.7,0.2,3,0.9,3.8c0.7,0.8,1.8,1.1,3.3,1.1h1L342.2,367.2z M324.2,381.1c-0.8-0.7-1.1-1.6-1.1-2.7c0-1,0.4-1.9,1.1-2.7
			c0.7-0.7,1.6-1.1,2.7-1.1c1.1,0,2,0.4,2.7,1.1c0.7,0.7,1.1,1.6,1.1,2.7c0,1-0.4,1.9-1.1,2.7c-0.8,0.7-1.7,1.1-2.7,1.1
			C325.9,382.2,325,381.8,324.2,381.1z M332.5,381.1c-0.8-0.7-1.1-1.6-1.1-2.7c0-1,0.4-1.9,1.1-2.7c0.7-0.7,1.6-1.1,2.7-1.1
			c1.1,0,2,0.4,2.7,1.1c0.7,0.7,1.1,1.6,1.1,2.7c0,1-0.4,1.9-1.1,2.7c-0.8,0.7-1.7,1.1-2.7,1.1C334.2,382.2,333.3,381.8,332.5,381.1
			z"/>
		<path class="st0" d="M338.6,372.5V367l2-0.7h16.1l2,0.7v5.4l-2,0.7h-16.1L338.6,372.5z"/>
		<path class="st0" d="M360.9,366.4v-1.2V362v-13.1h7.5V362v4.4h2.8c1.3,0,2.4-0.4,3.1-1.1c0.3-0.3,0.5-0.6,0.7-1
			c0.3-0.6,0.4-1.4,0.4-2.3v-13.1h7.5V362c0,1.7,0.2,2.8,0.7,3.5s1.2,0.9,2.1,0.9c0.9,0,1.7-0.3,2.3-1s0.9-1.8,0.9-3.4v-13.1h7.5
			V362c-0.3,3.5-1.3,6.2-3.1,8.2c-1.8,2-4.2,2.9-7.4,2.9c-2.2,0-4.1-0.5-5.5-1.5c-1.2-0.8-1.8-1.3-1.9-1.4c-0.1,0.2-0.9,0.8-2.3,1.7
			c-1.4,0.8-3.1,1.3-5,1.3h-14.5l-2-0.7V367l2-0.7H360.9z M372.1,344c-0.8-0.7-1.1-1.6-1.1-2.7c0-1,0.4-1.9,1.1-2.7
			c0.7-0.7,1.6-1.1,2.7-1.1c1.1,0,2,0.4,2.7,1.1c0.7,0.7,1.1,1.6,1.1,2.7s-0.4,1.9-1.1,2.7c-0.8,0.7-1.7,1.1-2.7,1.1
			C373.7,345.1,372.8,344.7,372.1,344z M376.5,336.3c-0.8-0.7-1.1-1.6-1.1-2.7c0-1,0.4-1.9,1.1-2.7c0.7-0.7,1.6-1.1,2.7-1.1
			c1.1,0,2,0.4,2.7,1.1c0.7,0.7,1.1,1.6,1.1,2.7s-0.4,1.9-1.1,2.7c-0.8,0.7-1.7,1.1-2.7,1.1C378.1,337.4,377.2,337.1,376.5,336.3z
			 M381.3,344c-0.8-0.7-1.1-1.6-1.1-2.7c0-1,0.4-1.9,1.1-2.7c0.7-0.7,1.6-1.1,2.7-1.1c1.1,0,2,0.4,2.7,1.1c0.7,0.7,1.1,1.6,1.1,2.7
			s-0.4,1.9-1.1,2.7c-0.8,0.7-1.7,1.1-2.7,1.1C382.9,345.1,382,344.7,381.3,344z"/>
		<path class="st0" d="M403.3,370c-1.9-2-2.9-5-2.9-8.9l-0.1-14.5v-9.9h7.7v9.9l-0.1,14.5c0,2,0.3,3.3,1,4.1s1.9,1.1,3.5,1.1h1.1
			l1.8,0.7v5.4l-1.8,0.7h-1.8C408,373.1,405.2,372.1,403.3,370z"/>
		<path class="st0" d="M411.3,372.5V367l2-0.7h16.1l2,0.7v5.4l-2,0.7h-16.1L411.3,372.5z"/>
		<path class="st0" d="M441.7,370c-1.9,2-4.8,3.1-8.4,3.1h-3.9l-1.6-0.7V367l1.6-0.7h0.9c3.2,0,5.1-0.4,5.8-1.1
			c0.7-0.8,1.1-2.1,1.1-4.1v-12.3h7.7v12.3C444.7,365.1,443.7,368,441.7,370z M438.2,346.3c-0.8-0.7-1.1-1.6-1.1-2.7
			c0-1,0.4-1.9,1.1-2.7s1.6-1.1,2.7-1.1c1.1,0,2,0.4,2.7,1.1c0.7,0.7,1.1,1.6,1.1,2.7s-0.4,1.9-1.1,2.7c-0.8,0.7-1.7,1.1-2.7,1.1
			C439.8,347.4,438.9,347,438.2,346.3z"/>
		<path class="st0" d="M462.6,373.1c-0.1,3.1-1.1,5.6-3,7.4c-2,2-5,3.2-9,3.5h-5.1V377h4.8c1.7,0,3-0.4,3.7-1.3s1.2-2.3,1.2-4.3
			v-22.6h7.6v17.5h4.8l1.6,0.7v5.4l-1.6,0.7H462.6z"/>
		<path class="st0" d="M465.2,372.5V367l2-0.7h16.1l2,0.7v5.4l-2,0.7h-16.1L465.2,372.5z"/>
		<path class="st0" d="M503.1,367.2v5.3l-1.6,0.7h-2c-1.7,0-3.4-0.5-5-1.5s-3.1-2.9-4.2-5.6h3.7c-0.9,2.6-2.1,4.5-3.5,5.5
			c-1.4,1-3.5,1.6-6.2,1.6h-0.9l-1.6-0.7V367l1.6-0.7h0.9c1.5,0,2.6-0.4,3.3-1.1c0.7-0.8,1-2,0.9-3.8v-10.3h7.8v10.3
			c-0.1,1.7,0.2,3,0.9,3.8c0.7,0.8,1.8,1.1,3.3,1.1h1L503.1,367.2z M486,347.9c-0.8-0.7-1.1-1.6-1.1-2.7c0-1,0.4-1.9,1.1-2.7
			s1.6-1.1,2.7-1.1c1.1,0,2,0.4,2.7,1.1c0.7,0.7,1.1,1.6,1.1,2.7s-0.4,1.9-1.1,2.7c-0.8,0.7-1.7,1.1-2.7,1.1
			C487.6,349,486.7,348.6,486,347.9z M494.3,347.9c-0.8-0.7-1.1-1.6-1.1-2.7c0-1,0.4-1.9,1.1-2.7c0.7-0.7,1.6-1.1,2.7-1.1
			c1.1,0,2,0.4,2.7,1.1s1.1,1.6,1.1,2.7s-0.4,1.9-1.1,2.7c-0.8,0.7-1.7,1.1-2.7,1.1S495,348.6,494.3,347.9z"/>
		<path class="st0" d="M513.8,370c-1.9,2-4.8,3.1-8.4,3.1h-3.9l-1.6-0.7V367l1.6-0.7h0.9c3.2,0,5.1-0.4,5.8-1.1s1.1-2.1,1.1-4.1
			v-12.3h7.7v12.3C516.8,365.1,515.7,368,513.8,370z M510.3,346.3c-0.8-0.7-1.1-1.6-1.1-2.7c0-1,0.4-1.9,1.1-2.7
			c0.7-0.7,1.6-1.1,2.7-1.1c1.1,0,2,0.4,2.7,1.1s1.1,1.6,1.1,2.7s-0.4,1.9-1.1,2.7c-0.8,0.7-1.7,1.1-2.7,1.1S511,347,510.3,346.3z"
			/>
		<path class="st0" d="M523,336.8h7.4v10.1l0,26.2H523l0-26.2V336.8z"/>
	</g>
</g>
<g>
	<polyline class="st1" points="162.6,342 181.2,371.1 156.2,386.8 136.5,353.5 	"/>
	<linearGradient id="SVGID_1_" gradientUnits="userSpaceOnUse" x1="119.2113" y1="268.5181" x2="206.6374" y2="268.5181">
		<stop  offset="0" style="stop-color:#506291"/>
		<stop  offset="1" style="stop-color:#323F6A"/>
	</linearGradient>
	<path class="st2" d="M119.2,335.7c32.7-4.4,58-32.4,58-66.4s-25.3-62-58-66.4v-30.4c49,4.5,87.4,45.8,87.4,96
		c0,50.2-38.4,91.4-87.4,96V335.7z"/>
	
		<linearGradient id="SVGID_00000134961043573191104080000017961883003290458034_" gradientUnits="userSpaceOnUse" x1="13.8422" y1="268.5181" x2="100.3453" y2="268.5181">
		<stop  offset="0" style="stop-color:#506291"/>
		<stop  offset="1" style="stop-color:#323F6A"/>
	</linearGradient>
	<path style="fill:url(#SVGID_00000134961043573191104080000017961883003290458034_);" d="M100.3,335.6
		c-32.3-4.8-57.1-32.6-57.1-66.3c0-33.7,24.8-61.5,57.1-66.3v-30.4c-48.6,5-86.5,46-86.5,95.9c0,49.9,37.9,90.9,86.5,95.9V335.6z"/>
</g>
<linearGradient id="SVGID_00000128483546894002722080000005978960767619250097_" gradientUnits="userSpaceOnUse" x1="43.1052" y1="265.267" x2="100.3453" y2="265.267">
	<stop  offset="0" style="stop-color:#323F6A"/>
	<stop  offset="1" style="stop-color:#506291"/>
</linearGradient>
<path style="fill:url(#SVGID_00000128483546894002722080000005978960767619250097_);" d="M44.1,280.3l56.3,0v-30.1l-54.4,0
	C42.5,259.2,42.6,269.5,44.1,280.3z"/>
</svg>
